# xmcd CD database file
#
# Track frame offsets:
#	150
#	16617
#	38969
#	58102
#	83314
#	104660
#	114619
#	136087
#	150122
#	171231
#	193025
#	214945
#	240132
#
# Disc length: 3240 seconds
#
# Revision: 0
# Processed by: cddbd v1.5.2PL0 Copyright (c) Steve Scherf et al.
# Submitted via: CDex 1.70beta2
#
DISCID=990ca60d
DTITLE=Eric Mingus - Healin' Howl
DYEAR=2007
DGENRE=Jazz
TTITLE0=Fool For You
TTITLE1=Better Hold Me Down
TTITLE2=In Your Little World
TTITLE3=Howlin'
TTITLE4=The Fade
TTITLE5=To Keep You Off My Mind
TTITLE6=Meat Puppet Existence
TTITLE7=Joy Is Blue (Joyous)
TTITLE8=Your Heart Isn't In It
TTITLE9=Tired Of Love
TTITLE10=Mr. Grip
TTITLE11=Gonna Be Just Fine
TTITLE12=Healin' Howl
EXTD=YEAR: 2007
EXTT0=
EXTT1=
EXTT2=
EXTT3=
EXTT4=
EXTT5=
EXTT6=
EXTT7=
EXTT8=
EXTT9=
EXTT10=
EXTT11=
EXTT12=
PLAYORDER=
